<svg width="5232" height="1014" viewBox="0 0 5232 1014" fill="none" xmlns="http://www.w3.org/2000/svg">
<g filter="url(#filter0_f_1_29)">
<path fill-rule="evenodd" clip-rule="evenodd" d="M147.66 158.828L4 120.121V468.484V700.726H34.4733C60.5933 700.726 121.54 700.726 178.133 729.756C201.984 741.99 226.608 759.381 251.353 776.857C285.324 800.849 319.524 825.003 352.267 836.2C408.86 855.554 469.807 836.2 526.4 807.17C538.589 800.917 550.979 794.216 563.485 787.453C609.044 762.813 656.129 737.349 700.533 729.756C724.763 725.613 749.791 726.791 774.933 727.975C808.516 729.556 842.303 731.147 874.667 720.079C890.416 714.693 906.502 706.31 922.738 697.848C964.844 675.905 1007.96 653.437 1048.8 681.372C1082.56 704.463 1117.87 761.993 1152.88 819.034C1176.56 857.61 1200.1 895.963 1222.93 923.291C1279.53 991.028 1340.47 991.028 1397.07 961.998C1431.96 944.097 1468.51 915.159 1504.68 886.527C1527.17 868.724 1549.5 851.04 1571.2 836.2C1624.04 800.062 1680.67 780.794 1734.01 762.645C1737.8 761.355 1741.58 760.071 1745.33 758.786C1801.93 739.433 1862.87 720.079 1919.47 749.109C1942.73 761.043 1966.73 781.153 1990.86 801.373C2025.43 830.34 2060.27 859.531 2093.6 865.23C2124.14 870.453 2155.96 855.944 2187.67 841.482C2214.71 829.147 2241.68 816.847 2267.73 816.847C2291.87 816.847 2316.81 827.411 2341.86 838.026C2375.53 852.294 2409.41 866.651 2441.87 855.554C2470.16 845.877 2499.55 816.847 2528.93 787.816C2558.32 758.786 2587.7 729.756 2616 720.079C2648.45 708.981 2682.34 723.339 2716.01 737.607C2741.06 748.221 2765.99 758.786 2790.13 758.786C2818.43 758.786 2847.82 744.271 2877.2 729.756C2906.59 715.241 2935.97 700.726 2964.27 700.726C3002.66 700.726 3043.06 727.452 3082.75 753.705C3101.56 766.147 3120.2 778.482 3138.4 787.816C3194.99 816.847 3255.94 816.847 3312.53 816.847C3369.13 816.847 3430.07 816.847 3486.67 778.14C3506.63 764.484 3527.14 746.011 3547.81 727.395C3585.72 693.242 3624.17 658.605 3660.8 652.342C3706.07 644.601 3754.14 680.211 3800.52 714.583C3812.12 723.176 3823.61 731.691 3834.93 739.433C3891.53 778.14 3952.47 797.493 4009.07 749.109C4032 729.502 4055.65 698.77 4079.44 667.863C4114.34 622.502 4149.54 576.762 4183.2 565.251C4239.79 545.898 4300.74 623.312 4357.33 720.079C4366.59 735.907 4375.96 752.253 4385.42 768.735C4433.75 853.021 4484.13 940.881 4531.47 981.351C4588.06 1029.73 4649.01 1010.38 4705.6 961.998C4762.19 913.614 4823.14 836.2 4879.73 758.786C4936.33 681.372 4997.27 603.958 5053.87 603.958C5110.46 603.958 5171.41 681.372 5197.53 720.079L5228 758.786V468.484V4L5084.34 33.0302C5079.52 33.9754 5074.55 34.9513 5069.45 35.9553C4917.61 65.7898 4639.51 120.436 4357.33 129.798C4175.33 135.836 3995.01 123.034 3814.28 110.203C3705.38 102.471 3596.33 94.7291 3486.67 91.0907C3194.99 81.414 2907.67 100.767 2616 139.474C2470.16 158.828 2325.42 183.02 2180.67 207.212C2035.92 231.404 1891.17 255.595 1745.33 274.949C1453.66 313.656 1166.34 333.009 874.667 303.979C595.343 276.178 320.012 204.004 167.2 163.946C160.444 162.175 153.927 160.467 147.66 158.828Z" fill="url(#paint0_linear_1_29)"/>
</g>
<defs>
<filter id="filter0_f_1_29" x="0" y="0" width="5232" height="1013.38" filterUnits="userSpaceOnUse" color-interpolation-filters="sRGB">
<feFlood flood-opacity="0" result="BackgroundImageFix"/>
<feBlend mode="normal" in="SourceGraphic" in2="BackgroundImageFix" result="shape"/>
<feGaussianBlur stdDeviation="2" result="effect1_foregroundBlur_1_29"/>
</filter>
<linearGradient id="paint0_linear_1_29" x1="2616" y1="4" x2="2616" y2="1009.38" gradientUnits="userSpaceOnUse">
<stop stop-color="#36531F"/>
<stop offset="0.0268545" stop-color="#4E8225" stop-opacity="0.97"/>
<stop offset="0.423286" stop-color="#0F653D"/>
<stop offset="0.64842" stop-color="#0E582B"/>
<stop offset="0.966545" stop-color="#0A3814"/>
<stop offset="1" stop-color="#104845"/>
</linearGradient>
</defs>
</svg>
